<svg width="1600" height="900" viewBox="0 0 1600 900" fill="none" xmlns="http://www.w3.org/2000/svg">
  <defs>
    <linearGradient id="bg" x1="188" y1="71" x2="1397" y2="883" gradientUnits="userSpaceOnUse">
      <stop stop-color="#0F223A"/>
      <stop offset="1" stop-color="#1A4F7D"/>
    </linearGradient>
    <radialGradient id="glowA" cx="0" cy="0" r="1" gradientUnits="userSpaceOnUse" gradientTransform="translate(1170 248) rotate(135) scale(540 421)">
      <stop stop-color="#74C0FF" stop-opacity="0.62"/>
      <stop offset="1" stop-color="#74C0FF" stop-opacity="0"/>
    </radialGradient>
    <radialGradient id="glowB" cx="0" cy="0" r="1" gradientUnits="userSpaceOnUse" gradientTransform="translate(447 732) rotate(-18) scale(640 270)">
      <stop stop-color="#8CD7FF" stop-opacity="0.34"/>
      <stop offset="1" stop-color="#8CD7FF" stop-opacity="0"/>
    </radialGradient>
  </defs>
  <rect width="1600" height="900" fill="url(#bg)"/>
  <rect width="1600" height="900" fill="url(#glowA)"/>
  <rect width="1600" height="900" fill="url(#glowB)"/>

  <g opacity="0.28">
    <circle cx="1268" cy="210" r="3" fill="#D7EEFF"/>
    <circle cx="1348" cy="242" r="2" fill="#D7EEFF"/>
    <circle cx="1224" cy="300" r="2.5" fill="#D7EEFF"/>
    <circle cx="1120" cy="180" r="2" fill="#D7EEFF"/>
    <circle cx="1175" cy="130" r="1.8" fill="#D7EEFF"/>
    <circle cx="1408" cy="190" r="2.2" fill="#D7EEFF"/>
  </g>

  <g transform="translate(980 180)">
    <ellipse cx="220" cy="450" rx="220" ry="54" fill="#0A192A" fill-opacity="0.45"/>
    <rect x="85" y="258" width="270" height="186" rx="86" fill="#EAF6FF" fill-opacity="0.92"/>
    <rect x="52" y="275" width="58" height="128" rx="29" fill="#D4ECFF" fill-opacity="0.9"/>
    <rect x="330" y="275" width="58" height="128" rx="29" fill="#D4ECFF" fill-opacity="0.9"/>
    <rect x="145" y="414" width="150" height="60" rx="28" fill="#D4ECFF" fill-opacity="0.95"/>
    <rect x="133" y="468" width="174" height="28" rx="14" fill="#B7DFFF" fill-opacity="0.7"/>

    <rect x="78" y="64" width="284" height="250" rx="130" fill="#F2FAFF" fill-opacity="0.95"/>
    <rect x="106" y="96" width="228" height="152" rx="76" fill="#B9E2FF" fill-opacity="0.72"/>
    <circle cx="162" cy="173" r="34" fill="#0F223A"/>
    <circle cx="278" cy="173" r="34" fill="#0F223A"/>
    <circle cx="172" cy="162" r="10" fill="#99D8FF"/>
    <circle cx="288" cy="162" r="10" fill="#99D8FF"/>
    <rect x="174" y="222" width="92" height="14" rx="7" fill="#1D3B5C" fill-opacity="0.76"/>

    <rect x="202" y="22" width="34" height="48" rx="17" fill="#CBEAFF"/>
    <circle cx="219" cy="22" r="16" fill="#89CEFF"/>
    <circle cx="219" cy="22" r="7" fill="#0F223A"/>
  </g>
</svg>
