<svg width="1600" height="900" viewBox="0 0 1600 900" fill="none" xmlns="http://www.w3.org/2000/svg">
  <defs>
    <linearGradient id="base" x1="141" y1="66" x2="1474" y2="858" gradientUnits="userSpaceOnUse">
      <stop stop-color="#0C2337"/>
      <stop offset="1" stop-color="#14517A"/>
    </linearGradient>
    <radialGradient id="halo" cx="0" cy="0" r="1" gradientUnits="userSpaceOnUse" gradientTransform="translate(1246 179) rotate(141) scale(600 420)">
      <stop stop-color="#6FC1FF" stop-opacity="0.6"/>
      <stop offset="1" stop-color="#6FC1FF" stop-opacity="0"/>
    </radialGradient>
  </defs>
  <rect width="1600" height="900" fill="url(#base)"/>
  <rect width="1600" height="900" fill="url(#halo)"/>

  <g stroke="#9FD8FF" stroke-opacity="0.55" stroke-width="2">
    <path d="M150 190H560L650 280H980L1080 180H1450"/>
    <path d="M160 420H430L520 330H790L900 430H1430"/>
    <path d="M130 650H500L610 540H930L1020 640H1460"/>
  </g>

  <g fill="#D4EEFF">
    <rect x="530" y="240" width="140" height="80" rx="14"/>
    <rect x="870" y="390" width="150" height="84" rx="14"/>
    <rect x="590" y="500" width="160" height="86" rx="14"/>
    <rect x="1030" y="130" width="170" height="94" rx="14"/>
  </g>

  <g fill="#83CAFF">
    <circle cx="558" cy="280" r="8"/>
    <circle cx="622" cy="280" r="8"/>
    <circle cx="904" cy="430" r="8"/>
    <circle cx="968" cy="430" r="8"/>
    <circle cx="628" cy="543" r="8"/>
    <circle cx="704" cy="543" r="8"/>
    <circle cx="1060" cy="177" r="8"/>
    <circle cx="1130" cy="177" r="8"/>
  </g>

  <g fill="#D4EEFF" fill-opacity="0.7">
    <circle cx="210" cy="160" r="2.2"/>
    <circle cx="287" cy="224" r="1.8"/>
    <circle cx="1360" cy="286" r="2.2"/>
    <circle cx="1430" cy="360" r="1.8"/>
    <circle cx="1260" cy="710" r="2"/>
    <circle cx="420" cy="730" r="2"/>
  </g>
</svg>
